<svg id="SvgjsSvg1001" width="288" height="288" xmlns="http://www.w3.org/2000/svg" version="1.1" xmlns:xlink="http://www.w3.org/1999/xlink" xmlns:svgjs="http://svgjs.com/svgjs"><defs id="SvgjsDefs1002"></defs><g id="SvgjsG1008" transform="matrix(1,0,0,1,0,0)"><svg xmlns="http://www.w3.org/2000/svg" width="288" height="288" enable-background="new 0 0 20 20" viewBox="0 0 20 20"><rect width="20" height="20" fill="none"></rect><path d="M13,9c0.35,0,0.68,0.06,1,0.14V6.18L9,4L4,6.18v3.27c0,3.03,2.13,5.86,5,6.55c0.35-0.08,0.7-0.2,1.02-0.35 C9.39,14.94,9,14.02,9,13C9,10.79,10.79,9,13,9z" fill="#ffffff" class="color000 svgShape"></path><path d="M13,10c-1.66,0-3,1.34-3,3c0,1.66,1.34,3,3,3s3-1.34,3-3C16,11.34,14.66,10,13,10z M13,11.03c0.47,0,0.84,0.38,0.84,0.84 c0,0.46-0.38,0.84-0.84,0.84s-0.84-0.38-0.84-0.84C12.16,11.41,12.53,11.03,13,11.03z M13,15.06c-0.7,0-1.31-0.35-1.68-0.87 c0.04-0.54,1.13-0.81,1.68-0.81s1.64,0.27,1.68,0.81C14.31,14.72,13.7,15.06,13,15.06z" fill="#ffffff" class="color000 svgShape"></path></svg></g></svg>