<svg id="SvgjsSvg1026" width="288" height="288" xmlns="http://www.w3.org/2000/svg" version="1.1" xmlns:xlink="http://www.w3.org/1999/xlink" xmlns:svgjs="http://svgjs.com/svgjs"><defs id="SvgjsDefs1027"></defs><g id="SvgjsG1028"><svg xmlns="http://www.w3.org/2000/svg" width="288" height="288" fill="none" viewBox="0 0 20 20"><path fill="#ffffff" d="M3 5.5C3.55228 5.5 4 5.05228 4 4.5 4 3.94772 3.55228 3.5 3 3.5 2.44772 3.5 2 3.94772 2 4.5 2 5.05228 2.44772 5.5 3 5.5zM6 4.5C6 4.22386 6.22386 4 6.5 4H17.5C17.7761 4 18 4.22386 18 4.5 18 4.77614 17.7761 5 17.5 5H6.5C6.22386 5 6 4.77614 6 4.5zM6.5 8C6.22386 8 6 8.22386 6 8.5 6 8.77614 6.22386 9 6.5 9H17.5C17.7761 9 18 8.77614 18 8.5 18 8.22386 17.7761 8 17.5 8H6.5zM9.20703 13C9.30564 12.6514 9.43777 12.3168 9.59971 12H6.5C6.22386 12 6 12.2239 6 12.5 6 12.7761 6.22386 13 6.5 13H9.20703zM3 13.5C3.55228 13.5 4 13.0523 4 12.5 4 11.9477 3.55228 11.5 3 11.5 2.44772 11.5 2 11.9477 2 12.5 2 13.0523 2.44772 13.5 3 13.5zM3 9.5C3.55228 9.5 4 9.05228 4 8.5 4 7.94772 3.55228 7.5 3 7.5 2.44772 7.5 2 7.94772 2 8.5 2 9.05228 2.44772 9.5 3 9.5zM19 14.5C19 16.9853 16.9853 19 14.5 19 12.0147 19 10 16.9853 10 14.5 10 12.0147 12.0147 10 14.5 10 16.9853 10 19 12.0147 19 14.5zM15 12.5C15 12.2239 14.7761 12 14.5 12 14.2239 12 14 12.2239 14 12.5V14H12.5C12.2239 14 12 14.2239 12 14.5 12 14.7761 12.2239 15 12.5 15H14V16.5C14 16.7761 14.2239 17 14.5 17 14.7761 17 15 16.7761 15 16.5V15H16.5C16.7761 15 17 14.7761 17 14.5 17 14.2239 16.7761 14 16.5 14H15V12.5z" class="color212121 svgShape"></path></svg></g></svg>