<svg id="SvgjsSvg1001" width="288" height="288" xmlns="http://www.w3.org/2000/svg" version="1.1" xmlns:xlink="http://www.w3.org/1999/xlink" xmlns:svgjs="http://svgjs.com/svgjs"><defs id="SvgjsDefs1002"></defs><g id="SvgjsG1008" transform="matrix(1,0,0,1,0,0)"><svg xmlns="http://www.w3.org/2000/svg" viewBox="0 0 24 24" width="288" height="288"><g data-name="Layer 2" fill="#ffffff" class="color000 svgShape"><g data-name="arrow-down" fill="#ffffff" class="color000 svgShape"><rect width="24" height="24" fill="#ffffff" opacity="0" transform="rotate(-90 12 12)" class="colorfff svgShape"></rect><path fill="#ffffff" d="M12,17a1.72,1.72,0,0,1-1.33-.64l-4.21-5.1A2.1,2.1,0,0,1,6.2,9.05,1.76,1.76,0,0,1,7.79,8h8.42A1.76,1.76,0,0,1,17.8,9.05a2.1,2.1,0,0,1-.26,2.21l-4.21,5.1A1.72,1.72,0,0,1,12,17ZM8.09,10,12,14.82,16,10Z" class="color231f20 svgShape"></path></g></g></svg></g></svg>