<svg id="SvgjsSvg1018" width="288" height="288" xmlns="http://www.w3.org/2000/svg" version="1.1" xmlns:xlink="http://www.w3.org/1999/xlink" xmlns:svgjs="http://svgjs.com/svgjs"><defs id="SvgjsDefs1019"></defs><g id="SvgjsG1020"><svg xmlns="http://www.w3.org/2000/svg" width="288" height="288" viewBox="0 0 21 21"><g fill="none" fill-rule="evenodd" transform="translate(4 5)"><g stroke="#ffffff" stroke-linecap="round" stroke-linejoin="round" fill="#ffffff" class="color000 svgShape colorStroke2a2e3b svgStroke"><path d="M11.5 5.5h-7M11.5 9.5h-7M11.5 1.5h-7" fill="#ffffff" class="color000 svgShape"></path></g><path fill="#ffffff" d="m1.49884033 2.5c.5 0 1-.5 1-1s-.5-1-1-1-.99884033.5-.99884033 1 .49884033 1 .99884033 1zm0 4c.5 0 1-.5 1-1s-.5-1-1-1-.99884033.5-.99884033 1 .49884033 1 .99884033 1zm0 4c.5 0 1-.5 1-1s-.5-1-1-1-.99884033.5-.99884033 1 .49884033 1 .99884033 1z" class="color2a2e3b svgShape"></path></g></svg></g></svg>