<svg id="SvgjsSvg1001" width="288" height="288" xmlns="http://www.w3.org/2000/svg" version="1.1" xmlns:xlink="http://www.w3.org/1999/xlink" xmlns:svgjs="http://svgjs.com/svgjs"><defs id="SvgjsDefs1002"></defs><g id="SvgjsG1008" transform="matrix(1,0,0,1,0,0)"><svg xmlns="http://www.w3.org/2000/svg" enable-background="new 0 0 1792 1792" viewBox="0 0 1792 1792" width="288" height="288"><path d="M1082.2,896.6l410.2-410c51.5-51.5,51.5-134.6,0-186.1s-134.6-51.5-186.1,0l-410.2,410L486,300.4	c-51.5-51.5-134.6-51.5-186.1,0s-51.5,134.6,0,186.1l410.2,410l-410.2,410c-51.5,51.5-51.5,134.6,0,186.1
	c51.6,51.5,135,51.5,186.1,0l410.2-410l410.2,410c51.5,51.5,134.6,51.5,186.1,0c51.1-51.5,51.1-134.6-0.5-186.2L1082.2,896.6z" fill="#ffffff" class="color000 svgShape"></path></svg></g></svg>