<svg id="SvgjsSvg1001" width="288" height="288" xmlns="http://www.w3.org/2000/svg" version="1.1" xmlns:xlink="http://www.w3.org/1999/xlink" xmlns:svgjs="http://svgjs.com/svgjs"><defs id="SvgjsDefs1002"></defs><g id="SvgjsG1008" transform="matrix(1,0,0,1,0,0)"><svg xmlns="http://www.w3.org/2000/svg" viewBox="0 0 72 72" width="288" height="288"><path fill="none" stroke="#ffffff" stroke-linecap="round" stroke-miterlimit="10" stroke-width="2" d="M18.7712 52.9565c1.1419 8.6001 8.5393 14.9847 17.214 14.857 9.667 0 17.893-6.833 17.893-16.878l-.001-.001-.657-11.129c-.1631-2.228-2.0023-3.9616-4.236-3.993h-10c-2.0658-.1226-3.8473 1.4362-4 3.5.1821 2.1099 1.8646 3.7781 3.976 3.942l1.049.117c2.187.242 3.976 1.342 3.976 2.442v2 .44c-2.1534.4577-4.1469 1.4784-5.777 2.958M18.7712 52.9565c-.3908-2.8898-1.0629-7.8732-1.0629-14.8732" class="colorStroke000 svgStroke"></path><line x1="17.708" x2="15.771" y1="38.083" y2="19.568" fill="none" stroke="#ffffff" stroke-linecap="round" stroke-miterlimit="10" stroke-width="2" class="colorStroke000 svgStroke"></line><line x1="22" x2="22.944" y1="17.917" y2="26.607" fill="none" stroke="#ffffff" stroke-linecap="round" stroke-miterlimit="10" stroke-width="2" class="colorStroke000 svgStroke"></line><line x1="43.5" x2="43.042" y1="8.25" y2="23.16" fill="none" stroke="#ffffff" stroke-linecap="round" stroke-miterlimit="10" stroke-width="2" class="colorStroke000 svgStroke"></line><line x1="51.875" x2="52.375" y1="8.458" y2="33.292" fill="none" stroke="#ffffff" stroke-linecap="round" stroke-miterlimit="10" stroke-width="2" class="colorStroke000 svgStroke"></line><path fill="none" stroke="#ffffff" stroke-linecap="round" stroke-miterlimit="10" stroke-width="2" d="M15.7708 19.5676c-.7236-7.7302 5.4982-7.5954 6.2292-1.651M43.5 8.25c0-5.875 8.375-5.1875 8.375.2083" class="colorStroke000 svgStroke"></path><path fill="none" stroke="#ffffff" stroke-linecap="round" stroke-linejoin="round" stroke-width="2" d="M31.3179,40.6385 c-3.322,1.2271-4.997-1.9342-4.8744-4v-7c-0.2578-1.933,1.1001-3.709,3.0331-3.9669c1.933-0.2578,3.709,1.1001,3.9669,3.0331 c0.0413,0.3099,0.0413,0.6239,0,0.9337" class="colorStroke000 svgStroke"></path><path fill="none" stroke="#ffffff" stroke-linecap="round" stroke-linejoin="round" stroke-width="2" d="M33.5059,34.0036v-5.3175 c-0.2578-1.933,1.1001-3.709,3.0331-3.9669c1.933-0.2578,3.709,1.1001,3.9669,3.0331c0.0413,0.3099,0.0413,0.6239,0,0.9337 l0.031,3.5043" class="colorStroke000 svgStroke"></path></svg></g></svg>